# xmcd
#
# Track frame offsets: 
#        182
#        14865
#        29637
#        44457
#        56525
#        69667
#        84125
#        96902
#        111097
#        124182
#        137015
#        148960
#        162207
#        174935
#        188732
#        201100
#
# Disc length: 2862 seconds
#
# Revision: 1
# Processed by: cddbd v1.5.2PL0 Copyright (c) Steve Scherf et al.
# Submitted via: ExactAudioCopy v1.3
#
DISCID=e60b2c10
DTITLE=Bing Crosby, John Scott Trotter and his Orchestra - Bing Crosby
DYEAR=1989
DGENRE=Vocal
TTITLE0=Bing Crosby, Jimmy Dorsey and his Orchestra - In A Little Hula
TTITLE0=Heaven
TTITLE1=Bing Crosby, Victor Young and his Orchestra - Moonlight And Sh
TTITLE1=adows
TTITLE2=The Moon Got In My Eyes
TTITLE3=Smarty
TTITLE4=Can I Forget You
TTITLE5=The Folks Who Live On The Hill
TTITLE6=My Heart Is Taking Lessons
TTITLE7=This Is My Night To Dream
TTITLE8=On The Sentimental Side
TTITLE9=Now It Can Be Told
TTITLE10=I've Got A Pocketful Of Dreams
TTITLE11=Bing Crosby, Bob Crosby and his Orchestra - You Must Have Bee
TTITLE11=n A Beautiful Baby
TTITLE12=You're A Sweet Little Headache
TTITLE13=I Have Eyes
TTITLE14=The Funny Old Hills
TTITLE15=My Melancholy Baby
EXTD=
EXTT0=
EXTT1=
EXTT2=
EXTT3=
EXTT4=
EXTT5=
EXTT6=
EXTT7=
EXTT8=
EXTT9=
EXTT10=
EXTT11=
EXTT12=
EXTT13=
EXTT14=
EXTT15=
PLAYORDER=
